<?xml version="1.0" encoding="utf-8"?>
<!-- Generator: Adobe Illustrator 18.1.1, SVG Export Plug-In . SVG Version: 6.00 Build 0)  -->
<!DOCTYPE svg PUBLIC "-//W3C//DTD SVG 1.1//EN" "http://www.w3.org/Graphics/SVG/1.1/DTD/svg11.dtd">
<svg version="1.1" id="图层_1" xmlns="http://www.w3.org/2000/svg" xmlns:xlink="http://www.w3.org/1999/xlink" x="0px" y="0px"
	 viewBox="0 0 60 60" enable-background="new 0 0 60 60" xml:space="preserve">
<path fill="#FFFFFF" d="M-309.4,550.8c-0.9-0.8-2.3-0.8-3.1,0l-24.3,21.3l0.1-0.1c-0.3,0.2-0.8,0.5-1.6,0.1l-8.7-7.3
	c-1-0.9-2.5-0.9-3.5,0c-1,1-1,2.6,0,3.5l11.6,11.7c0.1,0,0.1,0,0.1,0.1c0,0.1,0,0.1,0.1,0.1c0.9,0.9,2.3,0.9,3.1,0l26.2-26.2
	C-308.5,553.2-308.5,551.7-309.4,550.8z"/>
<g>
	<g transform="scale(0.1953125, 0.1953125)">
		<path fill="#FFFFFF" d="M244.2,63.2C220,39,187.8,25.7,153.6,25.7c-34.2,0-66.3,13.3-90.5,37.4c-24.2,24.2-37.5,56.3-37.5,90.4
			c0,34.2,13.3,66.3,37.5,90.4c24.2,24.1,56.3,37.4,90.5,37.4c34.2,0,66.4-13.3,90.6-37.5C294.1,194.2,294.1,113,244.2,63.2
			L244.2,63.2L244.2,63.2z M232.5,232.2c-21,21-49,32.6-78.8,32.6c-29.8,0-57.7-11.6-78.8-32.6c-21-21-32.6-49-32.6-78.7
			c0-29.7,11.6-57.7,32.6-78.7c21-21,49-32.6,78.8-32.6c29.8,0,57.7,11.6,78.8,32.6C275.9,118.3,275.9,188.8,232.5,232.2
			L232.5,232.2L232.5,232.2z M196.9,112.1c-8.3,0-15,6.7-15,14.9c0,8.2,6.7,14.9,15,14.9c8.3,0,15-6.7,15-14.9
			C211.9,118.8,205.2,112.1,196.9,112.1L196.9,112.1L196.9,112.1z M117.1,141.9c8.3,0,15-6.7,15-14.9c0-8.2-6.7-14.9-15-14.9
			c-8.3,0-15,6.7-15,14.9C102.1,135.2,108.8,141.9,117.1,141.9L117.1,141.9L117.1,141.9z M153.7,175.2c-20.9,0-39.4,11-50.4,27.8
			c-3.4,5.2,0.3,12.1,6.4,12.1h0.6c2.4,0,4.8-1.2,6.2-3.2c8.2-12.3,21.8-20.3,37.2-20.3c15.5,0,29.2,7.9,37.3,20.3
			c1.4,2.1,3.8,3.2,6.2,3.2h0.4c6.1,0,9.8-6.9,6.4-12.1C193.1,186.2,174.6,175.2,153.7,175.2L153.7,175.2L153.7,175.2z"/>
	</g>
</g>
</svg>
