<?xml version="1.0" encoding="utf-8"?>
<!-- Generator: Adobe Illustrator 18.1.1, SVG Export Plug-In . SVG Version: 6.00 Build 0)  -->
<!DOCTYPE svg PUBLIC "-//W3C//DTD SVG 1.1//EN" "http://www.w3.org/Graphics/SVG/1.1/DTD/svg11.dtd">
<svg version="1.1" id="图层_1" xmlns="http://www.w3.org/2000/svg" xmlns:xlink="http://www.w3.org/1999/xlink" x="0px" y="0px"
	 viewBox="-360 535.5 120 120" enable-background="new -360 535.5 120 120" xml:space="preserve">
<path fill="#FFFFFF" d="M-258.8,566.2c-1.7-1.7-4.5-1.7-6.2,0l-48.6,42.5l0.2-0.2c-0.6,0.4-1.7,1.1-3.2,0.2l-17.4-14.5
	c-1.9-1.9-5.1-1.9-7,0c-1.9,1.9-1.9,5.1,0,7l23.3,23.3c0.1,0.1,0.1,0.1,0.2,0.2c0.1,0.1,0.1,0.1,0.2,0.2c1.7,1.7,4.5,1.7,6.2,0
	l52.4-52.4C-257.1,570.8-257.1,567.9-258.8,566.2z"/>
</svg>
